<svg id="logo-23" width="130" height="47" viewBox="0 0 130 47" fill="none" xmlns="http://www.w3.org/2000/svg"> <path d="M12.9517 20.2335C12.9152 21.0903 12.897 22.1751 12.897 23.4877C12.897 24.8003 12.9152 25.8941 12.9517 26.7692C12.9881 27.6261 13.061 28.3097 13.1704 28.8202C13.298 29.3306 13.4712 29.6861 13.69 29.8867C13.927 30.0872 14.2369 30.1875 14.6198 30.1875C15.0026 30.1875 15.3034 30.0872 15.5222 29.8867C15.7592 29.6861 15.9324 29.3306 16.0418 28.8202C16.1694 28.3097 16.2514 27.6261 16.2879 26.7692C16.3244 25.8941 16.3426 24.8003 16.3426 23.4877C16.3426 22.1751 16.3244 21.0903 16.2879 20.2335C16.2514 19.3584 16.1694 18.6656 16.0418 18.1552C15.9324 17.6447 15.7592 17.2892 15.5222 17.0887C15.3034 16.8881 15.0026 16.7878 14.6198 16.7878C14.2369 16.7878 13.927 16.8881 13.69 17.0887C13.4712 17.2892 13.298 17.6447 13.1704 18.1552C13.061 18.6656 12.9881 19.3584 12.9517 20.2335Z" class="ccustom" fill="#394149"></path> <path fill-rule="evenodd" clip-rule="evenodd" d="M13.9205 3.1733C7.3267 3.3144 2.0855 8.7556 2.1913 15.35L2.3213 23.4524L2.1913 31.5548C2.0855 38.1493 7.3267 43.5905 13.9205 43.7315L22.0241 43.9049L30.1277 43.7315C36.7215 43.5905 41.9628 38.1493 41.857 31.5548L41.727 23.4524L41.857 15.35C41.9628 8.7556 36.7215 3.3144 30.1277 3.1733L22.0241 3L13.9205 3.1733ZM22.3041 33.7698L19.2413 36.4224L16.452 33.4143C16.2332 33.4508 16.0144 33.4782 15.7957 33.4964C15.5951 33.5328 15.3672 33.5511 15.112 33.5511H14.6198C13.3254 33.5511 12.2315 33.3779 11.3382 33.0315C10.4449 32.6851 9.7248 32.1108 9.1779 31.3087C8.631 30.4883 8.239 29.44 8.002 28.1639C7.765 26.8695 7.6465 25.3107 7.6465 23.4877C7.6465 21.6646 7.765 20.115 8.002 18.8388C8.239 17.5444 8.631 16.4962 9.1779 15.694C9.7248 14.8736 10.4449 14.2811 11.3382 13.9165C12.2315 13.5336 13.3254 13.3422 14.6198 13.3422C15.9142 13.3422 17.008 13.5336 17.9013 13.9165C18.7946 14.2811 19.5148 14.8736 20.0617 15.694C20.6086 16.4962 21.0006 17.5444 21.2376 18.8388C21.4746 20.115 21.5931 21.6646 21.5931 23.4877C21.5931 25.3654 21.4655 26.9515 21.2102 28.2459C20.955 29.5403 20.5357 30.5977 19.9523 31.4181L22.3041 33.7698ZM30.9363 20.753V19.6592C30.9363 18.5471 30.8269 17.7905 30.6081 17.3895C30.3894 16.9884 30.0339 16.7878 29.5416 16.7878C29.1588 16.7878 28.8489 16.8881 28.6119 17.0887C28.3931 17.2892 28.2199 17.6447 28.0923 18.1552C27.9829 18.6656 27.91 19.3584 27.8735 20.2335C27.837 21.0903 27.8188 22.1751 27.8188 23.4877C27.8188 24.8003 27.837 25.8941 27.8735 26.7692C27.91 27.6261 27.9829 28.3097 28.0923 28.8202C28.2199 29.3306 28.3931 29.6861 28.6119 29.8867C28.8489 30.0872 29.1588 30.1875 29.5416 30.1875C29.8515 30.1875 30.1068 30.1146 30.3073 29.9687C30.5079 29.8046 30.6628 29.5403 30.7722 29.1757C30.8816 28.8111 30.9545 28.3279 30.991 27.7263C31.0457 27.1065 31.073 26.3317 31.073 25.4019H35.9953V26.8513C35.9953 28.2186 35.813 29.3398 35.4484 30.2148C35.0838 31.0899 34.6007 31.7827 33.9991 32.2931C33.3974 32.7854 32.7047 33.1135 31.9207 33.2776C31.1551 33.4599 30.362 33.5511 29.5416 33.5511C28.1196 33.5511 26.9529 33.3779 26.0413 33.0315C25.1298 32.6851 24.4188 32.1108 23.9083 31.3087C23.3978 30.4883 23.0423 29.44 22.8418 28.1639C22.6595 26.8695 22.5683 25.3107 22.5683 23.4877C22.5683 21.6281 22.6777 20.0512 22.8965 18.7568C23.1335 17.4624 23.5255 16.4141 24.0724 15.612C24.6193 14.8098 25.3394 14.2355 26.2327 13.8891C27.126 13.5245 28.229 13.3422 29.5416 13.3422C30.6902 13.3422 31.6655 13.4881 32.4677 13.7798C33.2698 14.0715 33.917 14.4908 34.4093 15.0377C34.9197 15.5664 35.2843 16.2136 35.5031 16.9793C35.7401 17.7267 35.8586 18.5745 35.8586 19.5225V20.753H30.9363Z" class="ccustom" fill="#394149"></path> <path fill-rule="evenodd" clip-rule="evenodd" d="M65.7549 16.9364L70.2131 21.5629L74.6713 16.9364H82.417L74.0801 24.8676L82.417 32.7987H74.6713L70.2131 28.1604L65.7549 32.7987H57.9974L66.3344 24.8676L57.9974 16.9364H65.7549ZM65.3251 24.8676L56.2576 16.2415H66.0513L70.2131 20.5604L74.3749 16.2415H83.819V16.2297H99.825C103.485 16.1923 106.583 19.2529 106.533 22.9252C106.532 24.2461 106.175 25.4637 105.46 26.5474C104.922 27.3677 104.24 28.0426 103.423 28.5558L106.836 32.9379V30.096C106.836 27.8694 108.5 26.4499 110.414 25.5085C112.347 24.5581 114.786 23.9643 116.817 23.4839L116.82 23.4832L116.843 23.4774C118.095 23.1695 119.161 22.9074 119.92 22.6247C120.304 22.4814 120.556 22.3517 120.7 22.2415C120.718 22.2275 120.733 22.2151 120.746 22.2044C120.702 22.164 120.612 22.1037 120.435 22.0342C120.022 21.8725 119.317 21.7507 118.249 21.7504C117.108 21.7622 116.138 21.855 115.476 22.0872C115.15 22.2017 114.953 22.3321 114.842 22.4545C114.748 22.5596 114.692 22.6843 114.697 22.8799L114.714 23.5915H107.084V22.8966C107.084 21.47 107.364 20.2772 107.924 19.2999C108.487 18.3182 109.307 17.6014 110.307 17.0873C112.269 16.0786 114.972 15.8284 117.986 15.8284C121.072 15.8284 123.634 16.1845 125.448 17.1013C126.366 17.5659 127.112 18.1842 127.625 18.9883C128.139 19.7945 128.391 20.7435 128.391 21.8226C128.391 23.8195 127.186 25.0914 125.709 25.9204C124.275 26.7253 122.47 27.1824 120.971 27.5481H128.131V33.4701H107.25L107.259 33.4819H98.895L95.903 29.6107H91.408V33.4819H84.144L84.157 33.4937H74.3744L70.2131 29.1643L66.0518 33.4937H56.2576L65.3251 24.8676ZM83.819 33.1719V16.5632L75.0893 24.8676L83.819 33.1719ZM96.246 28.9158L99.238 32.7869H105.836L102.371 28.3374C102.588 28.2369 102.795 28.1257 102.994 28.0041C103.752 27.5399 104.382 26.9232 104.878 26.1658C105.517 25.198 105.836 24.1122 105.836 22.9202C105.884 19.6391 103.105 16.8892 99.829 16.9246H84.515V32.7869H90.711V28.9158H96.246ZM117.324 28.243C117.541 27.9777 117.934 27.7521 118.456 27.5481C119.071 27.3073 119.863 27.0965 120.753 26.8858C123.804 26.1422 127.695 25.1272 127.695 21.8226C127.695 17.9514 124.1 16.5233 117.986 16.5233C112.237 16.5233 108.16 17.4599 107.806 22.2016C107.789 22.4248 107.78 22.6563 107.78 22.8966H114.001C114 22.8704 114 22.8446 114.001 22.8192C114.035 21.4093 115.981 21.0786 118.246 21.0554C120.457 21.0554 121.474 21.5511 121.474 22.2239C121.474 23.0543 119.512 23.537 117.048 24.1429L116.981 24.1594C112.889 25.1272 107.532 26.4727 107.532 30.096V32.7751H127.434V28.243H117.324ZM120.785 22.2577C120.785 22.2577 120.781 22.2533 120.779 22.2431C120.785 22.2523 120.785 22.2577 120.785 22.2577ZM98.932 22.9202C98.932 22.5487 98.64 22.2579 98.268 22.2579H91.408V23.5707H98.268C98.468 23.5707 98.608 23.51 98.733 23.3848C98.876 23.2422 98.932 23.0996 98.932 22.9202ZM99.628 22.9202C99.628 22.1648 99.025 21.5629 98.268 21.5629H90.711V24.2656H98.268C98.646 24.2656 98.966 24.1358 99.226 23.8762C99.498 23.6047 99.628 23.2861 99.628 22.9202Z" class="ccustom" fill="#394149"></path> <path d="M58.5709 44.2423H61.5388V40.1786L64.5122 44.2423H65.9961L68.9696 40.1786V44.2423H71.9375V36.6249H68.2277L65.2542 40.4336L62.2864 36.6249H58.5709V44.2423Z" class="ccustom" fill="#394149"></path> <path d="M78.19 36.4379C75.3244 36.4436 72.9796 37.271 72.9909 40.1559V40.7113C72.9796 43.5905 75.3244 44.4237 78.19 44.4293C81.05 44.4237 83.395 43.5905 83.384 40.7113V40.1559C83.384 37.2767 81.056 36.4379 78.19 36.4379ZM80.416 40.5243C80.433 41.7712 79.402 41.9979 78.19 42.0149C76.9726 41.9979 75.9417 41.7712 75.9587 40.5243V40.3373C75.9417 39.096 76.9726 38.8693 78.19 38.8523C79.402 38.8693 80.433 39.096 80.416 40.3373V40.5243Z" class="ccustom" fill="#394149"></path> <path d="M91.698 40.445C91.698 41.2101 91.262 41.8392 90.492 41.8392H87.241V39.0507H90.492C91.262 39.0507 91.698 39.6741 91.698 40.445ZM84.273 36.6363V44.2536H91.047C93.137 44.282 94.689 42.5137 94.672 40.445C94.689 38.3649 93.137 36.6079 91.047 36.6363H84.273Z" class="ccustom" fill="#394149"></path> <path d="M102.935 40.53C102.952 41.7825 101.922 41.9979 100.709 42.0149C99.492 41.9979 98.467 41.7825 98.478 40.53V36.6249H95.51V40.717C95.499 43.5962 97.855 44.4237 100.709 44.4293C103.564 44.4237 105.92 43.5962 105.909 40.717V36.6249H102.935V40.53Z" class="ccustom" fill="#394149"></path> <path d="M107.245 36.6249V44.2423H116.155V41.8279H110.213V36.6249H107.245Z" class="ccustom" fill="#394149"></path> <path d="M117.168 44.2536H126.078V42.2983H120.136V41.3234H126.078V39.5608H120.136V38.5859H126.078V36.6363H117.168V44.2536Z" class="ccustom" fill="#394149"></path> <path d="M60.2797 7.6056V6.0003H64.6786C64.8917 6.0003 65.0772 6.0774 65.2284 6.2386C65.3865 6.3929 65.4621 6.5821 65.4621 6.8064C65.4621 7.0238 65.3865 7.213 65.2284 7.3743C65.0772 7.5285 64.8917 7.6056 64.6786 7.6056H60.2797ZM56.6782 3.2454V12.6668H60.2797V10.3675H65.579C67.4829 10.3956 69.0981 8.7482 69.0706 6.8064C69.0981 4.8577 67.4829 3.2243 65.579 3.2454H56.6782Z" class="ccustom" fill="#394149"></path> <path d="M76.2393 3C72.7615 3.007 69.916 4.0305 69.9297 7.5986V8.2856C69.916 11.8467 72.7615 12.8771 76.2393 12.8841C79.71 12.8771 82.556 11.8467 82.542 8.2856V7.5986C82.542 4.0375 79.717 3 76.2393 3ZM78.94 8.0542C78.961 9.5964 77.71 9.8768 76.2393 9.8979C74.7616 9.8768 73.5107 9.5964 73.5313 8.0542V7.8229C73.5107 6.2877 74.7616 6.0073 76.2393 5.9863C77.71 6.0073 78.961 6.2877 78.94 7.8229V8.0542Z" class="ccustom" fill="#394149"></path> <path d="M96.584 9.2109L94.446 3.2454H90.391L88.247 9.2109L86.109 3.2454H82.054L86.109 12.6668H90.391L92.419 7.9561L94.446 12.6668H98.728L102.784 3.2454H98.728L96.584 9.2109Z" class="ccustom" fill="#394149"></path> <path d="M103.059 12.6668H113.87V10.2484H106.66V9.0426H113.87V6.8625H106.66V5.6568H113.87V3.2454H103.059V12.6668Z" class="ccustom" fill="#394149"></path> <path d="M115.788 3.2383V12.6598H119.389V10.3605H122.606L124.345 12.6598H128.18L126.166 10.017C126.771 9.7296 127.259 9.295 127.623 8.7272C127.995 8.1524 128.18 7.5075 128.18 6.7994C128.208 4.8506 126.592 3.2173 124.689 3.2383H115.788ZM123.781 5.9933C124.221 5.9933 124.572 6.3508 124.572 6.7994C124.572 7.0167 124.496 7.206 124.338 7.3672C124.187 7.5215 124.001 7.5986 123.781 7.5986H119.389V5.9933H123.781Z" class="ccustom" fill="#394149"></path> </svg>